<?xml version="1.0" encoding="UTF-8"?> <svg xmlns="http://www.w3.org/2000/svg" id="Layer_1" data-name="Layer 1" viewBox="0 0 120 120"><defs><style> .cls-1 { fill: #111; } </style></defs><g><path class="cls-1" d="M105.08,68.07l9.87,2.35-1.39,5.82-1.47-.35,1.04-4.35-2.38-.57-.88,3.67-1.47-.35.88-3.67-4.56-1.08.35-1.47h.01Z"></path><path class="cls-1" d="M101.47,78.83c.28-.62.67-1.16,1.17-1.59.5-.44,1.06-.77,1.69-.98.63-.22,1.29-.32,1.97-.29.69.02,1.36.19,2.02.49.66.3,1.23.7,1.7,1.2s.83,1.06,1.08,1.68c.25.62.38,1.26.37,1.92,0,.66-.14,1.31-.42,1.93-.29.63-.68,1.16-1.18,1.6s-1.06.77-1.69.98c-.63.21-1.29.31-1.97.29-.68-.02-1.36-.19-2.02-.49-.66-.3-1.23-.7-1.7-1.2s-.83-1.06-1.08-1.67-.38-1.26-.38-1.92.14-1.31.43-1.94h.01ZM102.84,79.45c-.26.58-.35,1.19-.26,1.81.09.62.33,1.2.72,1.72.39.52.9.92,1.52,1.2.62.28,1.26.4,1.91.34.65-.06,1.24-.25,1.76-.59.53-.34.92-.8,1.19-1.39.26-.59.35-1.19.26-1.81-.09-.62-.33-1.2-.72-1.72s-.89-.92-1.52-1.2c-.62-.28-1.26-.4-1.91-.35-.65.05-1.24.25-1.76.59-.53.34-.92.8-1.19,1.39h0Z"></path><path class="cls-1" d="M98.82,84.43l8.17,6.02-2.21,3.01c-.33.44-.73.76-1.21.96-.48.19-.98.26-1.5.2-.52-.06-1.01-.26-1.46-.59-.57-.42-.95-.94-1.13-1.56-.19-.62-.17-1.24.04-1.83l-4.86-.54,1.04-1.41,4.71.52.82-1.11-3.3-2.43.9-1.21v-.03ZM102.44,88.97l-1.23,1.66c-.25.35-.35.74-.28,1.17s.28.79.65,1.06c.37.27.77.38,1.2.31s.78-.27,1.03-.62l1.23-1.66-2.6-1.92Z"></path><path class="cls-1" d="M90.97,93.89l6.21,8.03-1.29,1-8.23-3.02,4.54,5.87-1.19.92-6.21-8.03,1.29-1,8.23,3.02-4.54-5.87,1.19-.92Z"></path><path class="cls-1" d="M83.26,99.55l4.59,9.05-5.62,2.85-.68-1.34,4.27-2.17-1.11-2.19-3.44,1.75-.68-1.35,3.44-1.74-1.44-2.83-4.27,2.17-.68-1.34,5.62-2.85h0Z"></path><path class="cls-1" d="M74.06,103.76l4.94,9.24-1.51.37-3.62-6.78-.07,7.68-1.33.33-3.62-6.78-.07,7.68-1.51.37.08-10.47,1.68-.41,3.27,6.12.06-6.94,1.67-.41h.03Z"></path><path class="cls-1" d="M59.76,106l-.68,10.13-3.49-.23c-.54-.04-1.03-.21-1.45-.51-.42-.3-.75-.69-.98-1.16s-.33-.99-.29-1.54c.04-.56.21-1.07.5-1.5.3-.44.68-.78,1.14-1.02.46-.24.96-.34,1.49-.31l1.98.13.27-4.09,1.5.1h.01ZM57.88,111.49l-1.83-.12c-.43-.03-.82.1-1.15.39-.33.29-.51.66-.54,1.12s.1.85.39,1.18c.29.33.65.51,1.08.54l1.83.12.22-3.23Z"></path><path class="cls-1" d="M51.91,105.36l-2.44,9.85-3.62-.9c-.53-.13-.98-.38-1.34-.75-.36-.37-.61-.81-.75-1.31s-.14-1.03,0-1.57c.17-.69.51-1.23,1.01-1.64.5-.41,1.07-.63,1.71-.66l-1.36-4.7,1.7.42,1.32,4.55,1.34.33.99-3.97,1.46.36h-.02ZM49.1,110.44l-2.01-.5c-.42-.1-.81-.04-1.19.19-.38.23-.62.56-.73,1-.11.45-.05.86.17,1.23.23.38.55.61.97.72l2,.5.78-3.14h.01Z"></path><path class="cls-1" d="M39.95,101.23c.62.3,1.14.7,1.57,1.21s.74,1.08.95,1.71.29,1.29.25,1.98c-.04.69-.21,1.36-.53,2.01-.31.65-.73,1.21-1.24,1.67-.51.46-1.08.81-1.7,1.05-.62.24-1.27.35-1.93.33s-1.3-.17-1.92-.47c-.62-.3-1.15-.7-1.58-1.21s-.74-1.08-.95-1.71c-.21-.63-.29-1.29-.25-1.98.04-.68.22-1.35.53-2.01.31-.65.72-1.21,1.23-1.67.51-.46,1.07-.81,1.7-1.05s1.27-.35,1.93-.33,1.31.17,1.93.47h0ZM39.3,102.59c-.58-.28-1.18-.38-1.81-.3-.62.08-1.2.31-1.73.69-.53.38-.94.88-1.24,1.49-.3.62-.42,1.25-.39,1.9.04.65.22,1.24.55,1.78.33.54.78.94,1.36,1.22.58.28,1.18.38,1.81.3.62-.08,1.2-.31,1.73-.69s.94-.88,1.24-1.49c.3-.62.42-1.25.39-1.91-.04-.65-.22-1.24-.55-1.78-.33-.53-.78-.94-1.36-1.21Z"></path><path class="cls-1" d="M33.94,97.77c.29.21.54.46.75.75.21.29.36.62.44.97l-1.46.39c-.04-.15-.11-.31-.2-.46-.1-.16-.23-.3-.4-.42-.24-.17-.5-.26-.78-.27-.28,0-.56.04-.82.16s-.48.29-.64.53l-4.17,5.87-1.23-.87,4.17-5.87c.33-.46.74-.8,1.25-1.03.5-.23,1.03-.32,1.58-.29.55.04,1.05.22,1.52.55h-.01Z"></path><path class="cls-1" d="M29.87,95.01l-7.08,7.27-4.51-4.4,1.05-1.08,3.43,3.34,1.71-1.75-2.76-2.69,1.05-1.08,2.76,2.69,2.22-2.27-3.43-3.35,1.05-1.08,4.51,4.4Z"></path><path class="cls-1" d="M21.86,85.65c.39.56.65,1.17.76,1.83.11.66.11,1.3-.03,1.95-.14.65-.39,1.26-.77,1.84-.38.57-.86,1.07-1.46,1.48-.6.42-1.23.7-1.9.85-.67.15-1.33.17-1.99.07-.65-.1-1.27-.32-1.83-.67-.57-.34-1.05-.79-1.44-1.36-.47-.67-.74-1.41-.82-2.19-.08-.79,0-1.54.27-2.28l1.35.69c-.15.48-.19.98-.12,1.5.07.52.25.99.55,1.42.36.53.84.91,1.42,1.15.58.24,1.19.33,1.84.26.65-.07,1.25-.3,1.81-.68.57-.39,1-.88,1.29-1.46.29-.58.42-1.19.4-1.81-.02-.62-.21-1.2-.58-1.73-.3-.44-.68-.78-1.14-1.02-.46-.24-.94-.38-1.44-.41l-.16-1.52c.78,0,1.52.2,2.23.55s1.29.87,1.76,1.54Z"></path><path class="cls-1" d="M6.48,78.11l1.39-.59,1.26,2.98,7.96-3.37.59,1.39-7.96,3.37,1.26,2.97-1.39.59-3.11-7.34Z"></path><path class="cls-1" d="M14.95,69.53c.1.47.12.97.04,1.5-.08.53-.22,1.04-.43,1.51s-.46.86-.74,1.16l-1.1-1.03c.15-.16.3-.4.45-.71.14-.31.25-.66.32-1.03.07-.37.07-.72,0-1.06-.06-.29-.18-.57-.36-.82-.18-.25-.39-.45-.65-.58s-.53-.17-.83-.1c-.42.09-.74.36-.97.8-.23.44-.33.99-.32,1.63.04,1-.14,1.83-.55,2.49-.41.67-.96,1.08-1.66,1.23-.52.11-1.01.08-1.46-.11-.46-.19-.85-.48-1.17-.88-.32-.4-.54-.86-.66-1.38-.1-.44-.11-.88-.04-1.32s.21-.84.42-1.2c.21-.36.47-.66.78-.89l.92,1.2c-.29.22-.48.51-.57.87-.09.36-.1.7-.03,1.02.05.25.15.47.3.67.15.2.32.36.53.46.21.11.42.13.66.08.33-.07.58-.28.77-.61.19-.34.28-.7.29-1.08,0-.77.09-1.47.25-2.1.15-.62.41-1.14.76-1.55.35-.41.83-.68,1.43-.81.58-.13,1.12-.09,1.63.12.51.21.94.53,1.3.98.36.44.6.96.73,1.54h-.04Z"></path><path class="cls-1" d="M9.87,55.44c-.03.36-.19.65-.47.88-.28.23-.6.33-.97.29-.36-.03-.65-.19-.89-.46-.23-.28-.33-.6-.3-.95.03-.37.19-.67.47-.9s.6-.33.96-.3c.37.03.67.19.91.47.23.28.33.6.3.97h0Z"></path><path class="cls-1" d="M16.69,43.35l-10.28-1.99.66-1.4,7.54,1.47-5.92-4.9.58-1.23,7.54,1.47-5.92-4.9.66-1.4,8.07,6.67-.74,1.57-6.81-1.32,5.34,4.43-.74,1.55.02-.02Z"></path><path class="cls-1" d="M21.69,33.88l-7.97-6.28,3.9-4.95,1.18.93-2.97,3.76,1.92,1.52,2.39-3.03,1.19.93-2.39,3.03,2.49,1.97,2.97-3.76,1.18.93-3.9,4.95h.01Z"></path><path class="cls-1" d="M22.1,23.51l-2.69-2.66.75-.76,2.69,2.66-.75.76Z"></path><path class="cls-1" d="M28.42,26.06l-6.33-7.94,2.92-2.33c.43-.34.9-.55,1.42-.61.52-.06,1.01,0,1.5.2.49.2.9.51,1.25.95.44.55.67,1.15.69,1.8.02.65-.16,1.24-.52,1.76l4.55,1.78-1.37,1.09-4.41-1.72-1.08.86,2.55,3.2-1.18.94v.02ZM26.11,20.74l1.62-1.29c.34-.27.53-.62.58-1.06s-.07-.83-.35-1.19c-.29-.36-.65-.56-1.08-.61-.44-.05-.82.06-1.16.33l-1.62,1.29,2.02,2.53h-.01Z"></path><path class="cls-1" d="M35.25,20.86l-4.82-8.94,5.55-2.99.71,1.33-4.22,2.27,1.16,2.16,3.39-1.83.72,1.33-3.4,1.83,1.51,2.8,4.22-2.27.72,1.33-5.55,2.99h.01Z"></path><path class="cls-1" d="M46.93,5.23l1.72-.38,5.76,9.13-1.56.34-1.1-1.73-4.43.96-.28,2.03-1.57.34,1.45-10.7h0ZM47.54,11.97l3.35-.73-2.68-4.24-.67,4.97Z"></path><path class="cls-1" d="M57.93,13.94l-3.86-10.09,1.59-.03,3.18,8.3,2.9-8.4,1.59-.03-3.5,10.21-1.9.03h0Z"></path><path class="cls-1" d="M68.72,4.48l1.74.31,1.86,10.64-1.57-.28-.36-2.02-4.47-.79-1.03,1.78-1.58-.28,5.41-9.36ZM66.73,10.95l3.38.6-.87-4.94-2.51,4.34Z"></path><path class="cls-1" d="M73.82,16.11l3.25-9.61,1.43.48-3.25,9.61-1.43-.48Z"></path><path class="cls-1" d="M77.26,17.27l4.44-9.13,1.36.66-3.78,7.77,3.93,1.91-.66,1.36-5.29-2.57Z"></path><path class="cls-1" d="M92.52,14.31l1.41,1.05-3.1,10.35-1.28-.95.59-1.97-3.64-2.71-1.71,1.13-1.29-.96,9.02-5.94ZM87.84,19.2l2.75,2.05,1.44-4.81-4.19,2.76Z"></path><path class="cls-1" d="M91.71,26.68l7.55-6.79,2.61,2.9c.29.33.48.7.57,1.11.08.41.06.82-.06,1.22-.13.4-.35.75-.68,1.04-.34.31-.74.5-1.18.58-.44.07-.86.04-1.27-.11.22.55.27,1.12.14,1.72-.13.6-.42,1.11-.89,1.53-.39.36-.84.58-1.34.68-.5.1-1,.07-1.48-.08-.49-.15-.91-.43-1.27-.82l-2.69-2.99h-.01ZM93.67,26.94l1.52,1.69c.22.24.47.41.77.5.3.09.6.11.91.05.31-.06.59-.2.83-.42.25-.23.42-.49.52-.79.09-.3.11-.6.04-.91-.06-.3-.2-.58-.42-.82l-1.52-1.69-2.65,2.39ZM97.28,23.69l1.36,1.52c.25.28.56.42.93.45.37.02.7-.1.98-.35.29-.26.44-.58.46-.95.02-.37-.09-.7-.34-.97l-1.36-1.52-2.03,1.83h0Z"></path><path class="cls-1" d="M97.08,32.89l8.57-5.43.81,1.28-7.3,4.62,2.34,3.69-1.27.81-3.15-4.97Z"></path><path class="cls-1" d="M101,39.33l9.36-3.92,2.43,5.81-1.39.58-1.85-4.42-2.26.95,1.49,3.56-1.39.58-1.49-3.56-2.93,1.23,1.85,4.42-1.39.58-2.43-5.81Z"></path><path class="cls-1" d="M109.6,55.18c-.03-.36.07-.68.3-.96.23-.28.53-.43.91-.47.36-.03.68.06.96.29.28.23.44.52.47.88.04.37-.06.69-.3.97-.23.28-.53.43-.89.47-.37.04-.7-.06-.98-.29s-.44-.53-.47-.9h0Z"></path></g><polygon points="48.04 48.77 67.76 48.77 44.12 72.41 47.37 75.65 71.01 52.01 71.01 71.73 75.6 71.73 75.6 44.17 48.04 44.17 48.04 48.77"></polygon></svg> 